# File created by Blade
# Date/Time:  Wed Jan 21 14:37:15 2015
# Frame Rate: 120.000 fps
#------------------------------------------------------
:FULLY-SPECIFIED
:DEGREES
536
root 18.660276 35.514938 -22.128193 -172.802286 -0.980084 -178.045167
Spine -22.010760 -15.972756 5.607107
Head 7.772473 9.759607 3.651179
LeftShoulder 109.893706 -76.058292 -65.429958
LeftArm 43.921154 38.574674 -100.753552
LeftForeArm 40.534562 -0.000000 69.476997
LeftHand -3.552117 0.000000 -8.277645
LeftHandThumb1 -26.253704 0.000000 33.147579
RightShoulder 10.757260 3.616007 5.498084
RightArm 48.340273 -14.317745 57.424079
RightForeArm 36.509488 -0.000000 131.715704
RightHand 3.839387 -0.000000 -4.651971
RightHandThumb1 -24.326973 -0.000000 -32.862282
LeftUpLeg 1.017863 13.479366 2.157196
LeftLeg -6.330596 -0.000000 0.000000
LeftFoot -20.676667 29.569207 -11.942861
LeftToeBase 26.920815 -0.000000 -0.000000
RightUpLeg 0.117070 -8.899895 1.888047
RightLeg -3.699812 -0.000000 0.000000
RightFoot -20.241470 -25.002939 14.948634
RightToeBase 23.419924 -0.000000 -0.000000
537
root 18.660241 35.515263 -22.127406 -172.796317 -0.978817 -178.042549
Spine -22.007008 -15.946395 5.607187
Head 7.768860 9.802448 3.592810
LeftShoulder 109.806914 -76.073693 -65.371821
LeftArm 43.922921 38.560016 -100.756964
LeftForeArm 40.520022 -0.000000 69.267940
LeftHand -3.498027 -0.000000 -8.248924
LeftHandThumb1 -26.253704 0.000000 33.147579
RightShoulder 10.782198 3.623159 5.481384
RightArm 48.342219 -14.301136 57.425790
RightForeArm 36.490862 0.000000 131.709245
RightHand 3.827434 -0.000000 -4.614652
RightHandThumb1 -24.326973 -0.000000 -32.862282
LeftUpLeg 1.014230 13.479990 2.157607
LeftLeg -6.338435 -0.000000 0.000000
LeftFoot -20.673083 29.574602 -11.950145
LeftToeBase 26.953375 -0.000000 -0.000000
RightUpLeg 0.113631 -8.885004 1.891709
RightLeg -3.707864 -0.000000 0.000000
RightFoot -20.251505 -25.036702 14.893483
RightToeBase 23.609974 -0.000000 -0.000000
538
root 18.660400 35.515222 -22.126932 -172.791910 -0.971045 -178.036996
Spine -21.995449 -15.909460 5.606539
Head 7.726825 9.831640 3.560292
LeftShoulder 109.012981 -76.149657 -64.653916
LeftArm 44.198098 38.651320 -100.592683
LeftForeArm 40.337486 -0.000000 69.002106
LeftHand -3.515014 -0.000000 -8.230951
LeftHandThumb1 -26.253704 0.000000 33.147579
RightShoulder 10.799915 3.611478 5.469035
RightArm 48.368359 -14.284330 57.411311
RightForeArm 36.452711 -0.000000 131.721754
RightHand 3.832019 -0.000000 -4.546326
RightHandThumb1 -24.326973 -0.000000 -32.862282
LeftUpLeg 1.017255 13.484618 2.160947
LeftLeg -6.351847 -0.000000 0.000000
LeftFoot -20.667038 29.584569 -11.942426
LeftToeBase 26.934159 -0.000000 -0.000000
RightUpLeg 0.114625 -8.878076 1.894092
RightLeg -3.720401 -0.000000 0.000000
RightFoot -20.206379 -25.013557 14.901067
RightToeBase 23.453149 -0.000000 -0.000000
539
root 18.661667 35.515208 -22.125708 -172.782954 -0.957738 -178.034483
Spine -21.980459 -15.866524 5.592610
Head 7.654728 9.866586 3.571278
LeftShoulder 108.773276 -76.199001 -64.428651
LeftArm 44.298094 38.687331 -100.556159
LeftForeArm 40.039558 -0.000000 68.791895
LeftHand -3.475392 -0.000000 -8.138436
LeftHandThumb1 -26.253704 0.000000 33.147579
RightShoulder 10.807414 3.602432 5.464325
RightArm 48.385678 -14.283510 57.400146
RightForeArm 36.446328 -0.000000 131.698535
RightHand 3.933345 -0.000000 -4.424946
RightHandThumb1 -24.326973 -0.000000 -32.862282
LeftUpLeg 1.013628 13.497707 2.162497
LeftLeg -6.362744 -0.000000 0.000000
LeftFoot -20.657366 29.591567 -11.935472
LeftToeBase 26.946050 -0.000000 -0.000000
RightUpLeg 0.102770 -8.856100 1.898942
RightLeg -3.716092 -0.000000 0.000000
RightFoot -20.186728 -25.050411 14.792796
RightToeBase 23.548469 -0.000000 -0.000000
540
root 18.661802 35.515289 -22.125441 -172.777354 -0.965407 -178.029517
Spine -21.968874 -15.837557 5.594593
Head 7.609663 9.898430 3.539424
LeftShoulder 108.958909 -76.213098 -64.597550
LeftArm 44.228825 38.668900 -100.631182
LeftForeArm 39.836718 -0.000000 68.665387
LeftHand -3.471713 -0.000000 -8.118538
LeftHandThumb1 -26.253704 0.000000 33.147579
RightShoulder 10.820415 3.567666 5.456340
RightArm 48.415089 -14.267808 57.385356
RightForeArm 36.417711 -0.000000 131.699457
RightHand 3.880303 0.000000 -4.305200
RightHandThumb1 -24.326973 -0.000000 -32.862282
LeftUpLeg 1.014963 13.498714 2.166600
LeftLeg -6.381836 -0.000000 0.000000
LeftFoot -20.649991 29.589999 -11.936064
LeftToeBase 26.978743 -0.000000 -0.000000
RightUpLeg 0.105936 -8.869610 1.905140
RightLeg -3.732848 -0.000000 0.000000
RightFoot -20.171166 -25.026936 14.810448
RightToeBase 23.520606 -0.000000 -0.000000
541
root 18.662765 35.515142 -22.124918 -172.772837 -0.967369 -178.027760
Spine -21.952901 -15.808703 5.583154
Head 7.556694 9.906647 3.519873
LeftShoulder 108.965014 -76.230852 -64.601254
LeftArm 44.230186 38.697182 -100.652053
LeftForeArm 39.629628 -0.000000 68.533272
LeftHand -3.436807 -0.000000 -8.123670
LeftHandThumb1 -26.253704 0.000000 33.147579
RightShoulder 10.826272 3.570632 5.459888
RightArm 48.415265 -14.274704 57.394142
RightForeArm 36.325307 0.000000 131.686117
RightHand 3.952695 -0.000000 -4.279818
RightHandThumb1 -24.326973 -0.000000 -32.862282
LeftUpLeg 1.009280 13.509949 2.168693
LeftLeg -6.383489 -0.000000 0.000000
LeftFoot -20.637670 29.588994 -11.915330
LeftToeBase 26.777784 -0.000000 -0.000000
RightUpLeg 0.104225 -8.874154 1.909487
RightLeg -3.741115 -0.000000 0.000000
RightFoot -20.168546 -25.030903 14.782824
RightToeBase 23.604830 -0.000000 -0.000000
542
root 18.663262 35.515133 -22.122853 -172.766222 -0.965756 -178.026437
Spine -21.933253 -15.768372 5.567772
Head 7.509618 9.907206 3.504604
LeftShoulder 108.388799 -76.262431 -64.076056
LeftArm 44.409401 38.817216 -100.530212
LeftForeArm 39.379422 -0.000000 68.407824
LeftHand -3.378415 0.000000 -8.119046
LeftHandThumb1 -26.253704 0.000000 33.147579
RightShoulder 10.825449 3.552438 5.478987
RightArm 48.431484 -14.275159 57.371388
RightForeArm 36.192963 -0.000000 131.680505
RightHand 4.000999 -0.000000 -4.322167
RightHandThumb1 -24.326973 -0.000000 -32.862282
LeftUpLeg 1.006429 13.514962 2.168860
LeftLeg -6.398146 -0.000000 0.000000
LeftFoot -20.636518 29.584483 -11.933126
LeftToeBase 26.808568 -0.000000 -0.000000
RightUpLeg 0.094588 -8.872833 1.913681
RightLeg -3.744147 -0.000000 0.000000
RightFoot -20.155838 -25.047213 14.767384
RightToeBase 23.543175 -0.000000 -0.000000
543
root 18.664472 35.514994 -22.122159 -172.758438 -0.981029 -178.019456
Spine -21.924434 -15.757626 5.574992
Head 7.459398 9.926265 3.477682
LeftShoulder 108.451128 -76.268439 -64.111434
LeftArm 44.357721 38.838352 -100.579721
LeftForeArm 39.224481 -0.000000 68.371280
LeftHand -3.365506 -0.000000 -8.094638
LeftHandThumb1 -26.253704 0.000000 33.147579
RightShoulder 10.839155 3.522034 5.484760
RightArm 48.433476 -14.267438 57.363119
RightForeArm 36.088596 -0.000000 131.687018
RightHand 3.958051 -0.000000 -4.283867
RightHandThumb1 -24.326973 -0.000000 -32.862282
LeftUpLeg 1.000768 13.514797 2.176071
LeftLeg -6.409372 -0.000000 0.000000
LeftFoot -20.621513 29.575158 -11.899720
LeftToeBase 26.972436 -0.000000 -0.000000
RightUpLeg 0.093340 -8.874440 1.925186
RightLeg -3.756221 -0.000000 0.000000
RightFoot -20.146828 -25.042565 14.804398
RightToeBase 23.517663 -0.000000 -0.000000
544
root 18.664875 35.514783 -22.120760 -172.746023 -1.005616 -178.018458
Spine -21.918402 -15.757848 5.573870
Head 7.417535 9.942862 3.468943
LeftShoulder 108.562566 -76.269240 -64.201490
LeftArm 44.328171 38.883173 -100.602477
LeftForeArm 39.148312 -0.000000 68.348419
LeftHand -3.354419 -0.000000 -8.140562
LeftHandThumb1 -26.253704 0.000000 33.147579
RightShoulder 10.834496 3.501692 5.507097
RightArm 48.446818 -14.277806 57.331982
RightForeArm 35.918153 -0.000000 131.675402
RightHand 4.010024 -0.000000 -4.283832
RightHandThumb1 -24.326973 -0.000000 -32.862282
LeftUpLeg 0.987946 13.498709 2.176073
LeftLeg -6.422050 -0.000000 0.000000
LeftFoot -20.608635 29.572426 -11.886186
LeftToeBase 26.972257 -0.000000 -0.000000
RightUpLeg 0.082541 -8.902054 1.933057
RightLeg -3.761436 -0.000000 0.000000
RightFoot -20.140212 -25.056010 14.763941
RightToeBase 23.528397 -0.000000 -0.000000
